<mxfile host="app.diagrams.net" modified="2024-07-16T15:45:03.010Z" agent="Mozilla/5.0 (X11; Linux x86_64) AppleWebKit/537.36 (KHTML, like Gecko) Chrome/120.0.0.0 Safari/537.36" etag="zU9i50Nj0x-rOLciz_rB" version="24.6.5" type="device">
  <diagram name="Page-1" id="Waey86w1WD9sTqxRe68j">
    <mxGraphModel dx="989" dy="491" grid="1" gridSize="10" guides="1" tooltips="1" connect="1" arrows="1" fold="1" page="1" pageScale="1" pageWidth="827" pageHeight="1169" math="0" shadow="0">
      <root>
        <mxCell id="0" />
        <mxCell id="1" parent="0" />
        <mxCell id="2JSPTkeu1R0I9rOsehys-5" value="Season-store" style="text;strokeColor=none;fillColor=none;html=1;fontSize=24;fontStyle=1;verticalAlign=middle;align=center;" vertex="1" parent="1">
          <mxGeometry x="370" y="20" width="100" height="40" as="geometry" />
        </mxCell>
        <mxCell id="2JSPTkeu1R0I9rOsehys-20" value="General tables&lt;div&gt;&lt;br&gt;&lt;/div&gt;" style="text;strokeColor=none;fillColor=none;html=1;fontSize=24;fontStyle=1;verticalAlign=middle;align=center;" vertex="1" parent="1">
          <mxGeometry x="80" y="70" width="100" height="40" as="geometry" />
        </mxCell>
        <mxCell id="2JSPTkeu1R0I9rOsehys-32" value="users" style="swimlane;fontStyle=0;childLayout=stackLayout;horizontal=1;startSize=20;fillColor=none;horizontalStack=0;resizeParent=1;resizeParentMax=0;resizeLast=0;collapsible=1;marginBottom=0;html=1;rotation=0;labelBackgroundColor=none;" vertex="1" parent="1">
          <mxGeometry x="40" y="119" width="100" height="124" as="geometry" />
        </mxCell>
        <mxCell id="2JSPTkeu1R0I9rOsehys-33" value="id" style="text;strokeColor=none;fillColor=none;align=left;verticalAlign=top;spacingLeft=4;spacingRight=4;overflow=hidden;rotatable=0;points=[[0,0.5],[1,0.5]];portConstraint=eastwest;whiteSpace=wrap;html=1;" vertex="1" parent="2JSPTkeu1R0I9rOsehys-32">
          <mxGeometry y="20" width="100" height="26" as="geometry" />
        </mxCell>
        <mxCell id="2JSPTkeu1R0I9rOsehys-34" value="name" style="text;strokeColor=none;fillColor=none;align=left;verticalAlign=top;spacingLeft=4;spacingRight=4;overflow=hidden;rotatable=0;points=[[0,0.5],[1,0.5]];portConstraint=eastwest;whiteSpace=wrap;html=1;" vertex="1" parent="2JSPTkeu1R0I9rOsehys-32">
          <mxGeometry y="46" width="100" height="26" as="geometry" />
        </mxCell>
        <mxCell id="2JSPTkeu1R0I9rOsehys-35" value="email" style="text;strokeColor=none;fillColor=none;align=left;verticalAlign=top;spacingLeft=4;spacingRight=4;overflow=hidden;rotatable=0;points=[[0,0.5],[1,0.5]];portConstraint=eastwest;whiteSpace=wrap;html=1;" vertex="1" parent="2JSPTkeu1R0I9rOsehys-32">
          <mxGeometry y="72" width="100" height="26" as="geometry" />
        </mxCell>
        <mxCell id="2JSPTkeu1R0I9rOsehys-36" value="password" style="text;strokeColor=none;fillColor=none;align=left;verticalAlign=top;spacingLeft=4;spacingRight=4;overflow=hidden;rotatable=0;points=[[0,0.5],[1,0.5]];portConstraint=eastwest;whiteSpace=wrap;html=1;" vertex="1" parent="2JSPTkeu1R0I9rOsehys-32">
          <mxGeometry y="98" width="100" height="26" as="geometry" />
        </mxCell>
        <mxCell id="2JSPTkeu1R0I9rOsehys-37" value="products" style="swimlane;fontStyle=0;childLayout=stackLayout;horizontal=1;startSize=26;fillColor=none;horizontalStack=0;resizeParent=1;resizeParentMax=0;resizeLast=0;collapsible=1;marginBottom=0;html=1;" vertex="1" parent="1">
          <mxGeometry x="180" y="119" width="140" height="182" as="geometry" />
        </mxCell>
        <mxCell id="2JSPTkeu1R0I9rOsehys-38" value="product_id" style="text;strokeColor=none;fillColor=none;align=left;verticalAlign=top;spacingLeft=4;spacingRight=4;overflow=hidden;rotatable=0;points=[[0,0.5],[1,0.5]];portConstraint=eastwest;whiteSpace=wrap;html=1;" vertex="1" parent="2JSPTkeu1R0I9rOsehys-37">
          <mxGeometry y="26" width="140" height="26" as="geometry" />
        </mxCell>
        <mxCell id="2JSPTkeu1R0I9rOsehys-39" value="name" style="text;strokeColor=none;fillColor=none;align=left;verticalAlign=top;spacingLeft=4;spacingRight=4;overflow=hidden;rotatable=0;points=[[0,0.5],[1,0.5]];portConstraint=eastwest;whiteSpace=wrap;html=1;" vertex="1" parent="2JSPTkeu1R0I9rOsehys-37">
          <mxGeometry y="52" width="140" height="26" as="geometry" />
        </mxCell>
        <mxCell id="2JSPTkeu1R0I9rOsehys-40" value="price" style="text;strokeColor=none;fillColor=none;align=left;verticalAlign=top;spacingLeft=4;spacingRight=4;overflow=hidden;rotatable=0;points=[[0,0.5],[1,0.5]];portConstraint=eastwest;whiteSpace=wrap;html=1;" vertex="1" parent="2JSPTkeu1R0I9rOsehys-37">
          <mxGeometry y="78" width="140" height="26" as="geometry" />
        </mxCell>
        <mxCell id="2JSPTkeu1R0I9rOsehys-43" value="gender" style="text;strokeColor=none;fillColor=none;align=left;verticalAlign=top;spacingLeft=4;spacingRight=4;overflow=hidden;rotatable=0;points=[[0,0.5],[1,0.5]];portConstraint=eastwest;whiteSpace=wrap;html=1;" vertex="1" parent="2JSPTkeu1R0I9rOsehys-37">
          <mxGeometry y="104" width="140" height="26" as="geometry" />
        </mxCell>
        <mxCell id="2JSPTkeu1R0I9rOsehys-44" value="season" style="text;strokeColor=none;fillColor=none;align=left;verticalAlign=top;spacingLeft=4;spacingRight=4;overflow=hidden;rotatable=0;points=[[0,0.5],[1,0.5]];portConstraint=eastwest;whiteSpace=wrap;html=1;" vertex="1" parent="2JSPTkeu1R0I9rOsehys-37">
          <mxGeometry y="130" width="140" height="26" as="geometry" />
        </mxCell>
        <mxCell id="2JSPTkeu1R0I9rOsehys-42" value="image&lt;div&gt;&lt;br&gt;&lt;/div&gt;" style="text;strokeColor=none;fillColor=none;align=left;verticalAlign=top;spacingLeft=4;spacingRight=4;overflow=hidden;rotatable=0;points=[[0,0.5],[1,0.5]];portConstraint=eastwest;whiteSpace=wrap;html=1;" vertex="1" parent="2JSPTkeu1R0I9rOsehys-37">
          <mxGeometry y="156" width="140" height="26" as="geometry" />
        </mxCell>
        <mxCell id="2JSPTkeu1R0I9rOsehys-45" value="user_id" style="swimlane;fontStyle=0;childLayout=stackLayout;horizontal=1;startSize=26;fillColor=none;horizontalStack=0;resizeParent=1;resizeParentMax=0;resizeLast=0;collapsible=1;marginBottom=0;html=1;" vertex="1" parent="1">
          <mxGeometry x="70" y="400" width="140" height="52" as="geometry" />
        </mxCell>
        <mxCell id="2JSPTkeu1R0I9rOsehys-48" value="product_id" style="text;strokeColor=none;fillColor=none;align=left;verticalAlign=top;spacingLeft=4;spacingRight=4;overflow=hidden;rotatable=0;points=[[0,0.5],[1,0.5]];portConstraint=eastwest;whiteSpace=wrap;html=1;" vertex="1" parent="2JSPTkeu1R0I9rOsehys-45">
          <mxGeometry y="26" width="140" height="26" as="geometry" />
        </mxCell>
        <mxCell id="2JSPTkeu1R0I9rOsehys-49" value="Dynamically created tables" style="text;strokeColor=none;fillColor=none;html=1;fontSize=24;fontStyle=1;verticalAlign=middle;align=center;" vertex="1" parent="1">
          <mxGeometry x="140" y="320" width="100" height="40" as="geometry" />
        </mxCell>
        <mxCell id="2JSPTkeu1R0I9rOsehys-53" value="If a product bought or not" style="text;html=1;align=center;verticalAlign=middle;whiteSpace=wrap;rounded=0;" vertex="1" parent="1">
          <mxGeometry x="30" y="370" width="180" height="30" as="geometry" />
        </mxCell>
      </root>
    </mxGraphModel>
  </diagram>
</mxfile>
